<svg aria-hidden="true" style="position: absolute; width: 0; height: 0; overflow: hidden;" version="1.1" xmlns="http://www.w3.org/2000/svg" xmlns:xlink="http://www.w3.org/1999/xlink">
<defs>
<symbol id="icon-A" viewBox="0 0 32 32">
<path fill="#e4f9b2" style="fill: var(--color1, #e4f9b2)" d="M26.88 0h-21.76c-2.828 0-5.12 2.292-5.12 5.12v21.76c0 2.828 2.292 5.12 5.12 5.12h21.76c2.828 0 5.12-2.292 5.12-5.12v-21.76c0-2.828-2.292-5.12-5.12-5.12z"></path>
<path fill="#0e0e0f" style="fill: var(--color2, #0e0e0f)" d="M11.547 11.336c0.040-0.132 0.12-0.248 0.231-0.33s0.244-0.127 0.382-0.127h6.4c0.138 0 0.272 0.044 0.382 0.127s0.192 0.198 0.231 0.33l0.824 2.748c0.651 0.040 1.261 0.327 1.708 0.802s0.695 1.102 0.695 1.754v2.56c0 0.17-0.067 0.333-0.187 0.453s-0.283 0.187-0.453 0.187h-0.749c-0.133 0.375-0.379 0.7-0.704 0.93s-0.714 0.352-1.112 0.351c-0.398-0.001-0.786-0.126-1.11-0.357s-0.568-0.557-0.699-0.933c-0.035 0.006-0.070 0.009-0.106 0.009h-2.669c-0.132 0.375-0.377 0.699-0.702 0.929s-0.712 0.353-1.109 0.353-0.785-0.123-1.109-0.353c-0.324-0.23-0.57-0.554-0.702-0.929h-0.749c-0.17 0-0.333-0.067-0.453-0.187s-0.187-0.283-0.187-0.453v-3.84c-0-0.312 0.114-0.613 0.32-0.847s0.491-0.384 0.801-0.423l0.826-2.753zM18.084 12.16l0.576 1.92h-2.66v-1.92h2.084zM14.72 12.16v1.92h-2.66l0.576-1.92h2.084zM10.88 15.36h8.96c0.255-0 0.504 0.076 0.716 0.219s0.376 0.345 0.471 0.582h-0.547c-0.127 0-0.249 0.051-0.339 0.141s-0.141 0.212-0.141 0.339 0.051 0.249 0.141 0.339c0.090 0.090 0.212 0.141 0.339 0.141h0.64v1.44h-0.109c-0.133-0.375-0.379-0.7-0.704-0.93s-0.714-0.352-1.112-0.351c-0.398 0.001-0.786 0.126-1.11 0.357s-0.568 0.557-0.699 0.933c-0.035-0.006-0.071-0.009-0.106-0.009h-2.669c-0.132-0.375-0.377-0.699-0.702-0.929s-0.712-0.353-1.109-0.353-0.785 0.123-1.109 0.353c-0.324 0.23-0.57 0.554-0.702 0.929h-0.109v-1.44h0.64c0.127 0 0.249-0.051 0.339-0.141s0.141-0.212 0.141-0.339-0.051-0.249-0.141-0.339c-0.090-0.090-0.212-0.141-0.339-0.141h-0.64v-0.8zM13.44 19.2c0-0.17-0.067-0.333-0.187-0.453s-0.283-0.187-0.453-0.187c-0.17 0-0.333 0.067-0.453 0.187s-0.187 0.283-0.187 0.453c0 0.17 0.067 0.333 0.187 0.453s0.283 0.187 0.453 0.187c0.17 0 0.333-0.067 0.453-0.187s0.187-0.283 0.187-0.453zM19.2 18.56c-0.17 0-0.333 0.067-0.453 0.187s-0.187 0.283-0.187 0.453c0 0.17 0.067 0.333 0.187 0.453s0.283 0.187 0.453 0.187c0.17 0 0.333-0.067 0.453-0.187s0.187-0.283 0.187-0.453c0-0.17-0.067-0.333-0.187-0.453s-0.283-0.187-0.453-0.187z"></path>
</symbol>
<symbol id="icon-arrow-right" viewBox="0 0 32 32">
<path d="M0.001 13.296h23.851l-6.976-8.947 4.208-3.283 10.355 13.285c0.752 0.963 0.749 2.315 0 3.277l-10.357 13.272-4.203-3.283 7.016-8.989h-23.893v-5.333z"></path>
</symbol>
<symbol id="icon-arrow-right-2" viewBox="0 0 32 32">
<path d="M20.462 29.293l-2.523-1.968 7.605-9.747h-23.944v-3.2h23.902l-7.563-9.709 2.523-1.965 9.6 12.318c0.451 0.578 0.451 1.389 0 1.968l-9.6 12.302z"></path>
</symbol>
<symbol id="icon-C-A" viewBox="0 0 32 32">
<path fill="#ffdaed" style="fill: var(--color3, #ffdaed)" d="M26.88 0h-21.76c-2.828 0-5.12 2.292-5.12 5.12v21.76c0 2.828 2.292 5.12 5.12 5.12h21.76c2.828 0 5.12-2.292 5.12-5.12v-21.76c0-2.828-2.292-5.12-5.12-5.12z"></path>
<path fill="#0e0e0f" style="fill: var(--color2, #0e0e0f)" d="M14.828 12.052c0-0.232 0.069-0.459 0.198-0.651s0.312-0.343 0.526-0.432c0.214-0.089 0.45-0.112 0.677-0.067s0.436 0.157 0.6 0.321c0.164 0.164 0.276 0.373 0.321 0.6s0.022 0.463-0.067 0.677c-0.089 0.214-0.239 0.397-0.432 0.526s-0.42 0.198-0.651 0.198c-0.17 0-0.333 0.067-0.453 0.187s-0.187 0.283-0.187 0.453v1.802l-4.76 3.661c-0.311 0.239-0.563 0.546-0.736 0.898s-0.264 0.739-0.264 1.131v0.406c0 0.17 0.067 0.333 0.187 0.453s0.283 0.187 0.453 0.187h11.52c0.17 0 0.333-0.067 0.453-0.187s0.187-0.283 0.187-0.453v-0.402c0-0.394-0.091-0.782-0.265-1.135s-0.428-0.661-0.741-0.9l-4.753-3.629v-1.277c0.573-0.156 1.070-0.515 1.399-1.010s0.467-1.092 0.388-1.681c-0.078-0.589-0.367-1.129-0.814-1.521s-1.020-0.608-1.613-0.61c-0.65 0-1.274 0.258-1.734 0.718s-0.718 1.084-0.718 1.734c0 0.17 0.067 0.333 0.187 0.453s0.283 0.187 0.453 0.187c0.17 0 0.333-0.067 0.453-0.187s0.187-0.283 0.187-0.453zM11.38 20.343l4.6-3.538 4.637 3.539c0.251 0.192 0.422 0.469 0.481 0.78h-10.196c0.058-0.31 0.228-0.588 0.479-0.781z"></path>
</symbol>
<symbol id="icon-C-T" viewBox="0 0 32 32">
<path fill="#fdf6bc" style="fill: var(--color4, #fdf6bc)" d="M26.88 0h-21.76c-2.828 0-5.12 2.292-5.12 5.12v21.76c0 2.828 2.292 5.12 5.12 5.12h21.76c2.828 0 5.12-2.292 5.12-5.12v-21.76c0-2.828-2.292-5.12-5.12-5.12z"></path>
<path fill="#0e0e0f" style="fill: var(--color2, #0e0e0f)" d="M10.88 11.008c0-0.070 0.058-0.128 0.128-0.128h9.984c0.070 0 0.128 0.058 0.128 0.128v5.504h-10.24v-5.504zM10.88 17.792h10.24v0.896c0 0.034-0.014 0.067-0.038 0.090s-0.057 0.038-0.090 0.038h-9.984c-0.070 0-0.128-0.058-0.128-0.128v-0.896zM11.008 9.6c-0.373 0-0.732 0.148-0.996 0.412s-0.412 0.622-0.412 0.996v7.68c0 0.373 0.148 0.732 0.412 0.996s0.622 0.412 0.996 0.412h3.2v1.024h-1.664v1.28h6.912v-1.28h-1.664v-1.024h3.2c0.373 0 0.732-0.148 0.996-0.412s0.412-0.622 0.412-0.996v-7.68c0-0.373-0.148-0.732-0.412-0.996s-0.622-0.412-0.996-0.412h-9.984zM16.512 20.096v1.024h-1.024v-1.024h1.024z"></path>
</symbol>
<symbol id="icon-fb" viewBox="0 0 32 32">
<path d="M18.055 30.999h-6.084v-15.833h-3.083v-5.25h3.083v-3.084c0-2.332 0.5-4.027 1.5-5.083 1.054-1.166 2.75-1.749 5.083-1.749h4.167v5.166h-2.583c-0.889 0-1.445 0.165-1.668 0.5-0.277 0.389-0.416 0.917-0.416 1.584v2.583h4.583l-0.5 5.083h-4.084v16.084z"></path>
</symbol>
<symbol id="icon-footer-x" viewBox="0 0 32 32">
<path fill="#fff" style="fill: var(--color5, #fff)" d="M7.652 8.791c-1.084 0-2.684 0.483-3.992 1.643-1.258 1.115-2.269 2.873-2.269 5.566s1.012 4.451 2.269 5.566c1.308 1.16 2.908 1.643 3.992 1.643h6.482l2.299-14.419h-8.781zM7.652 7.273h16.696c2.646 0 7.652 1.915 7.652 8.727s-4.87 8.727-7.652 8.727h-16.696c-2.783 0-7.652-2.38-7.652-8.727s4.87-8.727 7.652-8.727z"></path>
<path fill="#000" style="fill: var(--color6, #000); stroke: var(--color2, #0e0e0f)" stroke="#0e0e0f" stroke-linejoin="miter" stroke-linecap="butt" stroke-miterlimit="4" stroke-width="1.4545" d="M23.466 15.996c0.205-0.101 0.399-0.237 0.567-0.42l2.634-2.863-0.991-1.077-2.634 2.863c-0.211 0.229-0.554 0.229-0.765 0l-2.619-2.845-0.991 1.077 2.619 2.845c0.172 0.187 0.371 0.327 0.582 0.429-0.205 0.101-0.399 0.236-0.567 0.419l-2.634 2.863 0.991 1.077 2.634-2.861c0.212-0.232 0.555-0.229 0.765-0.001l2.619 2.845 0.991-1.077-2.618-2.846c-0.172-0.187-0.372-0.326-0.582-0.428z"></path>
<path fill="#fff" style="fill: var(--color5, #fff)" d="M12.087 11.636l-4.689 6.555-2.279-2.496-1.119 1.226 2.91 3.188c0.149 0.163 0.35 0.254 0.56 0.254 0.016 0 0.032-0.001 0.048-0.002 0.226-0.016 0.435-0.136 0.576-0.33l5.24-7.325-1.246-1.070z"></path>
</symbol>
<symbol id="icon-G-P" viewBox="0 0 32 32">
<path fill="#dddeff" style="fill: var(--color7, #dddeff)" d="M26.88 0h-21.76c-2.828 0-5.12 2.292-5.12 5.12v21.76c0 2.828 2.292 5.12 5.12 5.12h21.76c2.828 0 5.12-2.292 5.12-5.12v-21.76c0-2.828-2.292-5.12-5.12-5.12z"></path>
<path fill="#0e0e0f" style="fill: var(--color2, #0e0e0f)" d="M16.538 12.697c0.263-0.359 0.78-0.642 1.46-0.813 0.203-0.050 0.408-0.090 0.615-0.117l0.209-0.026-0.003 0.162c-0.010 0.363-0.057 0.723-0.14 1.076-0.104 0.428-0.262 0.782-0.475 1.039-0.352 0.385-0.978 0.44-1.418 0.102-0.212-0.163-0.356-0.4-0.402-0.663s0.008-0.535 0.152-0.761zM15.037 15.574c-0.144 0.155-0.343 0.249-0.555 0.261s-0.42-0.059-0.58-0.197c-0.239-0.207-0.442-0.521-0.602-0.917l-0.070-0.189c-0.045-0.129-0.084-0.26-0.118-0.392l-0.052-0.224 0.203-0.003c0.275 0.002 0.549 0.027 0.809 0.081 0.405 0.084 0.729 0.236 0.953 0.451 0.304 0.303 0.314 0.806 0.013 1.129zM19.172 14.857c0.371-0.449 0.606-0.974 0.752-1.576 0.15-0.618 0.195-1.253 0.176-1.838l-0.016-0.31-0.012-0.132-0.063-0.566-0.651-0.003c-0.564 0.004-1.125 0.075-1.672 0.211-0.943 0.237-1.713 0.658-2.204 1.332-0.205 0.32-0.326 0.667-0.367 1.016-0.251-0.112-0.513-0.196-0.782-0.25-0.606-0.127-1.234-0.132-1.821-0.068l-0.147 0.018-0.155 0.024-0.561 0.104 0.044 0.637 0.019 0.171 0.031 0.214 0.021 0.122c0.075 0.419 0.188 0.839 0.349 1.237 0.231 0.571 0.541 1.052 0.953 1.407 0.311 0.269 0.695 0.44 1.102 0.492s0.822-0.015 1.191-0.196l-0.001 2.346c-1.088 0.142-2.099 0.642-2.873 1.42l0.908 0.902 0.125-0.119c0.699-0.641 1.619-0.986 2.567-0.964s1.851 0.41 2.519 1.083l0.908-0.902-0.141-0.138c-0.755-0.701-1.71-1.149-2.732-1.283v-3.767c0.437 0.158 0.91 0.183 1.361 0.072s0.859-0.353 1.172-0.696z"></path>
</symbol>
<symbol id="icon-H_I" viewBox="0 0 32 32">
<path fill="#f9d4ff" style="fill: var(--color8, #f9d4ff)" d="M26.88 0h-21.76c-2.828 0-5.12 2.292-5.12 5.12v21.76c0 2.828 2.292 5.12 5.12 5.12h21.76c2.828 0 5.12-2.292 5.12-5.12v-21.76c0-2.828-2.292-5.12-5.12-5.12z"></path>
<path fill="#0e0e0f" style="fill: var(--color2, #0e0e0f)" d="M21.047 10.070l0.911-0.029-0.029 0.911-4.374 4.374 1.336 1.336-0.905 0.905-0.012-0.012c-0.114-0.114-0.269-0.178-0.43-0.178s-0.316 0.064-0.43 0.178c-0.114 0.114-0.178 0.269-0.178 0.43s0.064 0.316 0.178 0.43l-0.011 0.011 0.012 0.012-3.283 3.283c-0.208 0.208-0.455 0.373-0.727 0.486s-0.563 0.171-0.857 0.171c-0.294 0-0.585-0.058-0.857-0.171s-0.519-0.278-0.727-0.486l-0.385-0.386c-0.208-0.208-0.373-0.455-0.486-0.727s-0.171-0.563-0.171-0.857c0-0.294 0.058-0.585 0.171-0.857s0.278-0.519 0.486-0.727l3.283-3.282 0.011 0.011 0.011-0.012c0.056 0.056 0.124 0.101 0.197 0.132s0.153 0.046 0.233 0.046 0.159-0.016 0.233-0.046c0.074-0.031 0.141-0.075 0.197-0.132s0.101-0.124 0.132-0.197c0.031-0.074 0.046-0.153 0.046-0.233s-0.016-0.159-0.046-0.233c-0.031-0.074-0.075-0.141-0.132-0.197l-0.010-0.011 0.905-0.906 1.335 1.336 4.374-4.374zM16.71 16.291l-1.002-1.002c-0.163 0.332-0.419 0.608-0.738 0.796s-0.685 0.276-1.054 0.257l-2.732 2.732c-0.18 0.18-0.281 0.424-0.281 0.678s0.101 0.498 0.281 0.678l0.385 0.386c0.089 0.089 0.195 0.16 0.312 0.208s0.241 0.073 0.367 0.073c0.126 0 0.251-0.025 0.368-0.073s0.222-0.119 0.312-0.208l2.732-2.732c-0.020-0.369 0.069-0.736 0.256-1.055s0.464-0.576 0.796-0.738zM11.796 20.204c-0.12-0.12-0.187-0.283-0.187-0.452s0.067-0.332 0.187-0.452l2.207-2.207c0.059-0.059 0.13-0.107 0.208-0.139s0.161-0.049 0.245-0.049c0.084 0 0.167 0.017 0.245 0.049s0.148 0.079 0.208 0.139c0.059 0.059 0.107 0.13 0.139 0.208s0.049 0.161 0.049 0.245c0 0.084-0.017 0.167-0.049 0.245s-0.079 0.148-0.139 0.208l-2.207 2.207c-0.12 0.12-0.283 0.187-0.452 0.187s-0.332-0.067-0.452-0.187z"></path>
</symbol>
<symbol id="icon-H-A" viewBox="0 0 32 32">
<path fill="#dddeff" style="fill: var(--color7, #dddeff)" d="M26.88 0h-21.76c-2.828 0-5.12 2.292-5.12 5.12v21.76c0 2.828 2.292 5.12 5.12 5.12h21.76c2.828 0 5.12-2.292 5.12-5.12v-21.76c0-2.828-2.292-5.12-5.12-5.12z"></path>
<path fill="#0e0e0f" style="fill: var(--color2, #0e0e0f)" d="M15.6 9.741c0.114-0.091 0.255-0.14 0.4-0.14s0.286 0.050 0.4 0.14l6.259 5.007-0.799 1-0.499-0.4-5.361-4.289-5.86 4.688-0.8-1 6.26-5.007zM11.136 21.76v-6.144h1.28v5.504h1.792v-1.28c0-0.235 0.046-0.468 0.136-0.686s0.222-0.415 0.388-0.581 0.364-0.298 0.581-0.388c0.217-0.090 0.45-0.136 0.686-0.136s0.468 0.046 0.686 0.136c0.217 0.090 0.415 0.222 0.581 0.388s0.298 0.364 0.388 0.581c0.090 0.217 0.136 0.451 0.136 0.686v1.28h1.792v-5.504h1.28v6.784h-4.352v-2.56c0-0.136-0.054-0.266-0.15-0.362s-0.226-0.15-0.362-0.15-0.266 0.054-0.362 0.15c-0.096 0.096-0.15 0.226-0.15 0.362v2.56h-4.352v-0.64zM16 13.44c-0.475 0-0.931 0.189-1.267 0.525s-0.525 0.792-0.525 1.267c0 0.475 0.189 0.931 0.525 1.267s0.792 0.525 1.267 0.525c0.475 0 0.931-0.189 1.267-0.525s0.525-0.792 0.525-1.267c0-0.475-0.189-0.931-0.525-1.267s-0.792-0.525-1.267-0.525zM15.488 15.232c0-0.136 0.054-0.266 0.15-0.362s0.226-0.15 0.362-0.15 0.266 0.054 0.362 0.15c0.096 0.096 0.15 0.226 0.15 0.362s-0.054 0.266-0.15 0.362c-0.096 0.096-0.226 0.15-0.362 0.15s-0.266-0.054-0.362-0.15c-0.096-0.096-0.15-0.226-0.15-0.362z"></path>
</symbol>
<symbol id="icon-H-B" viewBox="0 0 32 32">
<path fill="#e7d6fd" style="fill: var(--color9, #e7d6fd)" d="M26.88 0h-21.76c-2.828 0-5.12 2.292-5.12 5.12v21.76c0 2.828 2.292 5.12 5.12 5.12h21.76c2.828 0 5.12-2.292 5.12-5.12v-21.76c0-2.828-2.292-5.12-5.12-5.12z"></path>
<path fill="#0e0e0f" style="fill: var(--color2, #0e0e0f)" d="M19.158 9.998c-0.744-0.308-1.55-0.44-2.353-0.386s-1.584 0.292-2.281 0.696l0.643 1.107c0.66-0.383 1.417-0.568 2.179-0.531s1.498 0.292 2.119 0.736c0.621 0.444 1.1 1.059 1.38 1.769s0.349 1.486 0.199 2.234c-0.119 0.597-0.374 1.159-0.744 1.642s-0.848 0.874-1.394 1.144c-0.546 0.269-1.147 0.408-1.756 0.407h-1.536v1.28h5.501v0.512c0 0.136-0.054 0.266-0.15 0.362s-0.226 0.15-0.362 0.15h-4.988v1.28h4.989c0.235 0 0.468-0.046 0.686-0.136s0.415-0.222 0.581-0.388c0.166-0.166 0.298-0.364 0.388-0.581s0.136-0.451 0.136-0.686v-1.792h-1.806c0.745-0.645 1.293-1.487 1.582-2.429s0.307-1.946 0.052-2.898c-0.208-0.778-0.593-1.498-1.124-2.103s-1.195-1.081-1.939-1.388zM13.95 10.729l-3.583-1.12v3.831h-0.767v8.96h5.117v-8.96h-0.767v-2.711zM12.67 13.44h-1.022v-2.090l1.023 0.32-0.001 1.77zM10.88 21.12v-1.024h2.557v1.024h-2.557zM13.437 14.72v4.096h-2.557v-4.096h2.557z"></path>
</symbol>
<symbol id="icon-in" viewBox="0 0 32 32">
<path d="M32 30.999h-6.896v-10.818c0-3.048-1.17-4.573-3.505-4.573-1.66 0-2.791 0.818-3.394 2.455-0.224 0.445-0.338 1.002-0.338 1.672v11.375h-6.899v-20.296h6.899v2.898c1.43-2.229 3.466-3.345 6.105-3.345 1.204 0 2.299 0.186 3.278 0.557 0.979 0.374 1.77 0.892 2.376 1.563 0.678 0.669 1.204 1.634 1.582 2.9 0.451 1.487 0.678 2.824 0.678 4.014v11.598h0.113zM0.454 30.999h7.010v-20.296h-7.010v20.296zM1.131 6.91c-0.603-0.521-0.979-1.339-1.131-2.453 0-1.042 0.34-1.896 1.018-2.565 0.83-0.671 1.771-1.004 2.827-1.004 1.131 0 2.036 0.333 2.714 1.004 0.753 0.742 1.167 1.596 1.245 2.565 0 0.892-0.379 1.708-1.131 2.453-0.678 0.669-1.582 1.004-2.714 1.004-1.206 0-2.149-0.335-2.827-1.004z"></path>
</symbol>
<symbol id="icon-insta" viewBox="0 0 32 32">
<path stroke-linejoin="miter" stroke-linecap="butt" stroke-miterlimit="4" stroke-width="0.8" d="M17.479 1.6c2.593 0.005 3.141 0.025 4.458 0.086 1.533 0.070 2.58 0.313 3.496 0.669 0.947 0.368 1.75 0.86 2.551 1.661s1.293 1.604 1.661 2.551c0.356 0.916 0.599 1.963 0.669 3.496 0.060 1.317 0.081 1.865 0.086 4.458l0.001 1.074v0.406c0 0.14 0 0.275 0 0.406l-0.001 1.074c-0.005 2.593-0.025 3.141-0.086 4.458-0.070 1.533-0.313 2.58-0.669 3.496-0.368 0.947-0.86 1.75-1.661 2.551s-1.604 1.293-2.551 1.661c-0.916 0.356-1.963 0.599-3.496 0.669-1.317 0.060-1.865 0.081-4.458 0.086l-1.48 0.001c-0.14 0-0.275 0-0.406 0l-1.074-0.001c-2.593-0.005-3.141-0.025-4.458-0.086-1.533-0.070-2.58-0.313-3.496-0.669-0.947-0.368-1.75-0.86-2.551-1.661s-1.293-1.604-1.661-2.551c-0.356-0.916-0.599-1.963-0.669-3.496-0.060-1.317-0.081-1.865-0.086-4.458v-2.959c0.005-2.593 0.025-3.141 0.086-4.458 0.070-1.533 0.313-2.58 0.669-3.496 0.368-0.947 0.86-1.75 1.661-2.551s1.604-1.293 2.551-1.661c0.916-0.356 1.963-0.599 3.496-0.669 1.317-0.060 1.865-0.081 4.458-0.086h2.959zM16.8 4.194h-1.601c-2.245 0.002-3.13 0.011-3.974 0.040l-0.282 0.010c-0.237 0.009-0.481 0.020-0.763 0.033-1.404 0.064-2.167 0.299-2.674 0.496-0.672 0.261-1.152 0.573-1.656 1.077s-0.816 0.984-1.077 1.656c-0.197 0.507-0.432 1.27-0.496 2.674-0.013 0.281-0.024 0.526-0.033 0.763l-0.010 0.282c-0.029 0.844-0.039 1.729-0.040 3.974v1.601c0.002 2.245 0.011 3.13 0.040 3.974l0.010 0.282c0.009 0.236 0.020 0.481 0.033 0.763 0.064 1.404 0.299 2.167 0.496 2.674 0.261 0.672 0.573 1.152 1.077 1.656s0.984 0.816 1.656 1.077c0.507 0.197 1.27 0.432 2.674 0.496 0.281 0.013 0.526 0.024 0.762 0.033l0.282 0.011c0.844 0.029 1.729 0.039 3.974 0.040h1.601c2.245-0.002 3.13-0.011 3.974-0.040l0.282-0.011c0.236-0.009 0.481-0.020 0.762-0.033 1.404-0.064 2.167-0.299 2.674-0.496 0.672-0.261 1.152-0.573 1.656-1.077s0.816-0.984 1.077-1.656c0.197-0.507 0.432-1.27 0.496-2.674 0.013-0.281 0.024-0.526 0.033-0.763l0.011-0.282c0.029-0.844 0.039-1.729 0.040-3.974v-1.601c-0.002-2.245-0.011-3.13-0.040-3.974l-0.011-0.282c-0.009-0.237-0.020-0.481-0.033-0.763-0.064-1.404-0.299-2.167-0.496-2.674-0.261-0.672-0.573-1.152-1.077-1.656s-0.984-0.816-1.656-1.077c-0.507-0.197-1.27-0.432-2.674-0.496-0.281-0.013-0.526-0.024-0.763-0.033l-0.282-0.010c-0.844-0.029-1.729-0.039-3.974-0.040zM15.999 8.605c4.084 0 7.395 3.311 7.395 7.395s-3.311 7.395-7.395 7.395c-4.084 0-7.395-3.311-7.395-7.395s3.311-7.395 7.395-7.395zM15.999 11.199c-2.651 0-4.8 2.149-4.8 4.8s2.149 4.8 4.8 4.8c2.651 0 4.8-2.149 4.8-4.8s-2.149-4.8-4.8-4.8zM23.686 6.584c0.954 0 1.728 0.774 1.728 1.728s-0.774 1.728-1.728 1.728c-0.954 0-1.728-0.774-1.728-1.728s0.774-1.728 1.728-1.728z"></path>
</symbol>
<symbol id="icon-K-F" viewBox="0 0 32 32">
<path fill="#beebfc" style="fill: var(--color10, #beebfc)" d="M26.88 0h-21.76c-2.828 0-5.12 2.292-5.12 5.12v21.76c0 2.828 2.292 5.12 5.12 5.12h21.76c2.828 0 5.12-2.292 5.12-5.12v-21.76c0-2.828-2.292-5.12-5.12-5.12z"></path>
<path fill="#0e0e0f" style="fill: var(--color2, #0e0e0f)" d="M17.152 9.6c1.392 0 2.727 0.553 3.711 1.537s1.537 2.319 1.537 3.711h-0.003c0.002 0.021 0.003 0.042 0.003 0.064v0.704c0 0.387-0.076 0.769-0.224 1.127s-0.365 0.682-0.638 0.955c-0.273 0.273-0.598 0.49-0.955 0.638s-0.74 0.224-1.127 0.224h-5.376c-0.387 0-0.769-0.076-1.127-0.224s-0.682-0.365-0.955-0.638c-0.273-0.273-0.49-0.598-0.638-0.955s-0.224-0.74-0.224-1.127v-2.304c0-0.238-0.094-0.466-0.262-0.634s-0.396-0.262-0.634-0.262v-1.28c0.577 0 1.131 0.229 1.539 0.637s0.637 0.962 0.637 1.539v0.896h4.096v-4.608h0.64zM21.069 14.208c-0.134-0.821-0.523-1.578-1.111-2.166s-1.346-0.976-2.166-1.11v3.277l3.277-0.001zM12.416 15.488v0.128c0 0.441 0.175 0.865 0.487 1.177s0.735 0.487 1.177 0.487h5.376c0.441 0 0.865-0.175 1.177-0.487s0.487-0.735 0.487-1.177v-0.128h-8.704zM13.952 20.608c0-0.136 0.054-0.266 0.15-0.362s0.226-0.15 0.362-0.15c0.136 0 0.266 0.054 0.362 0.15s0.15 0.226 0.15 0.362c0 0.136-0.054 0.266-0.15 0.362s-0.226 0.15-0.362 0.15c-0.136 0-0.266-0.054-0.362-0.15s-0.15-0.226-0.15-0.362zM14.464 18.816c-0.235 0-0.468 0.046-0.686 0.136s-0.415 0.222-0.581 0.388-0.298 0.364-0.388 0.581c-0.090 0.217-0.136 0.45-0.136 0.686s0.046 0.468 0.136 0.686c0.090 0.217 0.222 0.415 0.388 0.581s0.364 0.298 0.581 0.388c0.217 0.090 0.45 0.136 0.686 0.136 0.475 0 0.931-0.189 1.267-0.525s0.525-0.792 0.525-1.267c0-0.475-0.189-0.931-0.525-1.267s-0.792-0.525-1.267-0.525zM19.072 20.096c-0.136 0-0.266 0.054-0.362 0.15s-0.15 0.226-0.15 0.362c0 0.136 0.054 0.266 0.15 0.362s0.226 0.15 0.362 0.15c0.136 0 0.266-0.054 0.362-0.15s0.15-0.226 0.15-0.362c0-0.136-0.054-0.266-0.15-0.362s-0.226-0.15-0.362-0.15zM17.28 20.608c0-0.475 0.189-0.931 0.525-1.267s0.792-0.525 1.267-0.525c0.475 0 0.931 0.189 1.267 0.525s0.525 0.792 0.525 1.267c0 0.475-0.189 0.931-0.525 1.267s-0.792 0.525-1.267 0.525c-0.475 0-0.931-0.189-1.267-0.525s-0.525-0.792-0.525-1.267z"></path>
</symbol>
<symbol id="icon-Ph" viewBox="0 0 32 32">
<path fill="#ffdede" style="fill: var(--color11, #ffdede)" d="M26.88 0h-21.76c-2.828 0-5.12 2.292-5.12 5.12v21.76c0 2.828 2.292 5.12 5.12 5.12h21.76c2.828 0 5.12-2.292 5.12-5.12v-21.76c0-2.828-2.292-5.12-5.12-5.12z"></path>
<path fill="#0e0e0f" style="fill: var(--color2, #0e0e0f)" d="M18.56 9.92h-5.12l-0.96 1.28h-0.96c-0.509 0-0.998 0.202-1.358 0.562s-0.562 0.848-0.562 1.358v6.4c0 0.509 0.202 0.998 0.562 1.358s0.848 0.562 1.358 0.562h8.96c0.509 0 0.998-0.202 1.358-0.562s0.562-0.848 0.562-1.358v-6.4l-0.003-0.113c-0.029-0.489-0.243-0.948-0.599-1.284s-0.828-0.523-1.317-0.523h-0.96l-0.96-1.28zM17.92 11.2l0.96 1.28h1.6c0.17 0 0.333 0.067 0.453 0.187s0.187 0.283 0.187 0.453v6.4c0 0.17-0.067 0.333-0.187 0.453s-0.283 0.187-0.453 0.187h-8.96c-0.17 0-0.333-0.067-0.453-0.187s-0.187-0.283-0.187-0.453v-6.4c0-0.17 0.067-0.333 0.187-0.453s0.283-0.187 0.453-0.187h1.6l0.96-1.28h3.84zM16 12.8c-0.849 0-1.663 0.337-2.263 0.937s-0.937 1.414-0.937 2.263 0.337 1.663 0.937 2.263c0.6 0.6 1.414 0.937 2.263 0.937s1.663-0.337 2.263-0.937c0.6-0.6 0.937-1.414 0.937-2.263s-0.337-1.663-0.937-2.263c-0.6-0.6-1.414-0.937-2.263-0.937zM16 14.080c0.252 0 0.502 0.050 0.735 0.146s0.445 0.238 0.623 0.416 0.32 0.39 0.416 0.623c0.096 0.233 0.146 0.483 0.146 0.735s-0.050 0.502-0.146 0.735c-0.096 0.233-0.238 0.445-0.416 0.623s-0.39 0.32-0.623 0.416c-0.233 0.096-0.483 0.146-0.735 0.146-0.509 0-0.998-0.202-1.358-0.562s-0.562-0.848-0.562-1.358c0-0.509 0.202-0.998 0.562-1.358s0.848-0.562 1.358-0.562z"></path>
</symbol>
<symbol id="icon-P-S" viewBox="0 0 32 32">
<path fill="#ffe09d" style="fill: var(--color12, #ffe09d)" d="M26.88 0h-21.76c-2.828 0-5.12 2.292-5.12 5.12v21.76c0 2.828 2.292 5.12 5.12 5.12h21.76c2.828 0 5.12-2.292 5.12-5.12v-21.76c0-2.828-2.292-5.12-5.12-5.12z"></path>
<path fill="#0e0e0f" style="fill: var(--color2, #0e0e0f)" d="M18.56 9.6h-5.12c-1.059 0-1.92 0.861-1.92 1.92v8.96c0 1.059 0.861 1.92 1.92 1.92h5.12c1.059 0 1.92-0.861 1.92-1.92v-8.96c0-1.059-0.861-1.92-1.92-1.92zM19.2 20.48c0 0.353-0.287 0.64-0.64 0.64h-5.12c-0.353 0-0.64-0.287-0.64-0.64v-8.96c0-0.353 0.287-0.64 0.64-0.64h0.778l0.507 0.64h2.56l0.497-0.64h0.778c0.353 0 0.64 0.287 0.64 0.64v8.96zM16 20.48c0.255 0 0.499-0.101 0.679-0.281s0.281-0.424 0.281-0.679c0-0.255-0.101-0.499-0.281-0.679s-0.424-0.281-0.679-0.281c-0.255 0-0.499 0.101-0.679 0.281s-0.281 0.424-0.281 0.679c0 0.255 0.101 0.499 0.281 0.679s0.424 0.281 0.679 0.281z"></path>
</symbol>
<symbol id="icon-S-O" viewBox="0 0 32 32">
<path fill="#cdfae4" style="fill: var(--color13, #cdfae4)" d="M26.88 0h-21.76c-2.828 0-5.12 2.292-5.12 5.12v21.76c0 2.828 2.292 5.12 5.12 5.12h21.76c2.828 0 5.12-2.292 5.12-5.12v-21.76c0-2.828-2.292-5.12-5.12-5.12z"></path>
<path fill="#0e0e0f" style="fill: var(--color2, #0e0e0f)" d="M15.931 9.6h0.069c3.535 0 6.4 2.865 6.4 6.4 0 0.143-0.005 0.286-0.014 0.428-0.22 3.334-2.995 5.972-6.386 5.972-3.535 0-6.4-2.865-6.4-6.4-0.001-1 0.233-1.986 0.683-2.879s1.103-1.668 1.907-2.263c1.083-0.805 2.393-1.245 3.741-1.257v-0.001zM11.553 13.459c-0.443 0.774-0.675 1.65-0.673 2.541 0 0.248 0.018 0.492 0.051 0.731 0.452 0.13 0.919 0.198 1.389 0.2l0.085-0.004c-0.573-1.064-0.866-2.257-0.851-3.466l-0.001-0.001zM11.343 18.131c0.239 0.522 0.563 0.996 0.954 1.405 1.933 0.038 3.177-0.251 4.034-0.721 0.705-0.387 1.196-0.922 1.6-1.603-0.533-0.284-1.113-0.47-1.711-0.548-0.708 0.617-1.544 1.068-2.449 1.32-0.089 0.047-0.187 0.072-0.287 0.073-0.378 0.086-0.764 0.137-1.151 0.152-0.331-0.001-0.662-0.027-0.989-0.079zM14.087 20.751c0.608 0.245 1.258 0.37 1.913 0.369 0.748 0.001 1.487-0.163 2.165-0.479s1.278-0.778 1.758-1.351c-0.204-0.424-0.465-0.817-0.777-1.169-0.055-0.056-0.111-0.11-0.168-0.163-0.482 0.785-1.11 1.475-2.031 1.981-0.764 0.419-1.695 0.693-2.86 0.813zM20.694 18.050c0.202-0.462 0.337-0.959 0.395-1.479-1.184-1.473-2.184-2.241-3.078-2.607-0.734-0.301-1.443-0.35-2.2-0.243 0.090 0.586 0.283 1.153 0.573 1.676 0.943 0.122 1.845 0.457 2.64 0.978 0.091 0.036 0.173 0.093 0.239 0.165 0.297 0.215 0.574 0.456 0.829 0.719 0.221 0.248 0.422 0.513 0.602 0.792zM20.872 14.42c-0.32-0.984-0.93-1.848-1.75-2.479s-1.812-0.998-2.845-1.054c-0.216 0.417-0.373 0.863-0.468 1.323-0.011 0.075-0.021 0.15-0.029 0.225 0.879-0.106 1.777-0.040 2.717 0.346 0.783 0.32 1.565 0.851 2.375 1.64zM14.822 11.016c-0.118 0.32-0.211 0.649-0.277 0.984-0.055 0.356-0.079 0.716-0.072 1.076-0.021 0.101-0.016 0.207 0.013 0.306 0.059 0.866 0.296 1.71 0.696 2.48-0.437 0.344-0.928 0.612-1.453 0.795-0.453-0.72-0.743-1.53-0.85-2.373s-0.029-1.7 0.229-2.511c0.519-0.356 1.1-0.613 1.713-0.758z"></path>
</symbol>
<symbol id="icon-T-H" viewBox="0 0 32 32">
<path fill="#c9faf9" style="fill: var(--color14, #c9faf9)" d="M26.88 0h-21.76c-2.828 0-5.12 2.292-5.12 5.12v21.76c0 2.828 2.292 5.12 5.12 5.12h21.76c2.828 0 5.12-2.292 5.12-5.12v-21.76c0-2.828-2.292-5.12-5.12-5.12z"></path>
<path fill="#0e0e0f" style="fill: var(--color2, #0e0e0f)" d="M17.024 14.346v5.366h-3.584v-9.729h3.584v0.564l2.233-0.76 0.207 0.605 2.8 8.219-3.393 1.156-0.206-0.605-1.641-4.816zM19.67 18.144l-2.18-6.401 0.969-0.33 2.181 6.401-0.97 0.33zM10.24 9.984h-0.64v9.728h3.584v-9.728h-2.944zM10.88 18.432v-7.168h1.024v7.168h-1.024zM10.24 21.12c-0.17 0-0.333 0.067-0.453 0.187s-0.187 0.283-0.187 0.453 0.067 0.332 0.187 0.453c0.12 0.12 0.283 0.187 0.453 0.187h11.52c0.17 0 0.333-0.067 0.453-0.187s0.187-0.283 0.187-0.453-0.067-0.333-0.187-0.453c-0.12-0.12-0.283-0.187-0.453-0.187h-11.52zM14.72 11.264v7.168h1.024v-7.168h-1.024z"></path>
</symbol>
<symbol id="icon-to-right" viewBox="0 0 32 32">
<path d="M9.696 26.067l8.938-8.938c0.626-0.626 0.626-1.637 0-2.262l-8.938-8.938 2.262-2.262 8.938 8.938c1.872 1.872 1.872 4.915 0 6.787l-8.938 8.938-2.262-2.262z"></path>
</symbol>
<symbol id="icon-TV-A" viewBox="0 0 32 32">
<path fill="#e7d6fd" style="fill: var(--color9, #e7d6fd)" d="M26.88 0h-21.76c-2.828 0-5.12 2.292-5.12 5.12v21.76c0 2.828 2.292 5.12 5.12 5.12h21.76c2.828 0 5.12-2.292 5.12-5.12v-21.76c0-2.828-2.292-5.12-5.12-5.12z"></path>
<path fill="#0e0e0f" style="fill: var(--color2, #0e0e0f)" d="M14.72 10.88c0-0.17-0.067-0.333-0.187-0.453s-0.283-0.187-0.453-0.187c-0.17 0-0.333 0.067-0.453 0.187s-0.187 0.283-0.187 0.453v10.24c0 0.17 0.067 0.333 0.187 0.453s0.283 0.187 0.453 0.187c0.17 0 0.333-0.067 0.453-0.187s0.187-0.283 0.187-0.453v-10.24zM12.16 12.16c0.17 0 0.333 0.067 0.453 0.187s0.187 0.283 0.187 0.453v6.4c0 0.17-0.067 0.333-0.187 0.453s-0.283 0.187-0.453 0.187c-0.17 0-0.333-0.067-0.453-0.187s-0.187-0.283-0.187-0.453v-6.4c0-0.17 0.067-0.333 0.187-0.453s0.283-0.187 0.453-0.187zM10.24 14.080c0.17 0 0.333 0.067 0.453 0.187s0.187 0.283 0.187 0.453v2.56c0 0.17-0.067 0.333-0.187 0.453s-0.283 0.187-0.453 0.187c-0.17 0-0.333-0.067-0.453-0.187s-0.187-0.283-0.187-0.453v-2.56c0-0.17 0.067-0.333 0.187-0.453s0.283-0.187 0.453-0.187zM17.92 14.080c0.17 0 0.333 0.067 0.453 0.187s0.187 0.283 0.187 0.453v2.56c0 0.17-0.067 0.333-0.187 0.453s-0.283 0.187-0.453 0.187c-0.17 0-0.333-0.067-0.453-0.187s-0.187-0.283-0.187-0.453v-2.56c0-0.17 0.067-0.333 0.187-0.453s0.283-0.187 0.453-0.187zM22.4 14.72c0-0.17-0.067-0.333-0.187-0.453s-0.283-0.187-0.453-0.187c-0.17 0-0.333 0.067-0.453 0.187s-0.187 0.283-0.187 0.453v2.56c0 0.17 0.067 0.333 0.187 0.453s0.283 0.187 0.453 0.187c0.17 0 0.333-0.067 0.453-0.187s0.187-0.283 0.187-0.453v-2.56zM16.64 12.8c0-0.17-0.067-0.333-0.187-0.453s-0.283-0.187-0.453-0.187c-0.17 0-0.333 0.067-0.453 0.187s-0.187 0.283-0.187 0.453v6.4c0 0.17 0.067 0.333 0.187 0.453s0.283 0.187 0.453 0.187c0.17 0 0.333-0.067 0.453-0.187s0.187-0.283 0.187-0.453v-6.4zM19.84 12.16c0.17 0 0.333 0.067 0.453 0.187s0.187 0.283 0.187 0.453v6.4c0 0.17-0.067 0.333-0.187 0.453s-0.283 0.187-0.453 0.187c-0.17 0-0.333-0.067-0.453-0.187s-0.187-0.283-0.187-0.453v-6.4c0-0.17 0.067-0.333 0.187-0.453s0.283-0.187 0.453-0.187z"></path>
</symbol>
<symbol id="icon-tvit" viewBox="0 0 32 32">
<path d="M32 6.502c-1.177 0.5-2.443 0.837-3.771 0.989 1.356-0.777 2.397-2.009 2.887-3.476-1.268 0.72-2.673 1.243-4.169 1.525-1.196-1.221-2.904-1.984-4.792-1.984-4.239 0-7.353 3.785-6.396 7.714-5.455-0.262-10.292-2.763-13.531-6.564-1.72 2.824-0.892 6.518 2.031 8.389-1.075-0.033-2.088-0.315-2.972-0.786-0.072 2.911 2.108 5.634 5.265 6.24-0.924 0.24-1.936 0.296-2.965 0.107 0.835 2.496 3.259 4.312 6.133 4.363-2.76 2.071-6.237 2.996-9.72 2.603 2.905 1.783 6.357 2.823 10.064 2.823 12.189 0 19.076-9.853 18.66-18.69 1.283-0.887 2.396-1.993 3.276-3.253z"></path>
</symbol>
<symbol id="icon-usa" viewBox="0 0 32 32">
<path fill="#f0f0f0" style="fill: var(--color15, #f0f0f0)" d="M16 32c8.836 0 16-7.164 16-16s-7.164-16-16-16c-8.837 0-16 7.163-16 16s7.163 16 16 16z"></path>
<path fill="#d80027" style="fill: var(--color16, #d80027)" d="M15.305 16h16.696c0-1.444-0.192-2.843-0.551-4.174h-16.145v4.174z"></path>
<path fill="#d80027" style="fill: var(--color16, #d80027)" d="M15.305 7.652h14.347c-0.979-1.598-2.232-3.011-3.692-4.174h-10.655v4.174z"></path>
<path fill="#d80027" style="fill: var(--color16, #d80027)" d="M16 32c3.766 0 7.227-1.302 9.96-3.478h-19.919c2.733 2.177 6.194 3.478 9.96 3.478z"></path>
<path fill="#d80027" style="fill: var(--color16, #d80027)" d="M2.349 24.347h27.303c0.786-1.283 1.396-2.686 1.797-4.174h-30.898c0.401 1.488 1.011 2.891 1.797 4.174z"></path>
<path fill="#0052b4" style="fill: var(--color17, #0052b4)" d="M7.412 2.499h1.458l-1.356 0.985 0.518 1.594-1.356-0.985-1.356 0.985 0.447-1.377c-1.194 0.995-2.241 2.16-3.103 3.459h0.467l-0.863 0.627c-0.135 0.224-0.264 0.452-0.387 0.684l0.412 1.269-0.769-0.559c-0.191 0.405-0.366 0.819-0.523 1.242l0.454 1.398h1.676l-1.356 0.985 0.518 1.594-1.356-0.985-0.812 0.59c-0.081 0.654-0.124 1.319-0.124 1.995h16c0-8.836 0-9.878 0-16-3.161 0-6.107 0.917-8.588 2.499zM8.031 14.4l-1.356-0.985-1.356 0.985 0.518-1.594-1.356-0.985h1.676l0.518-1.594 0.518 1.594h1.676l-1.356 0.985 0.518 1.594zM7.513 8.145l0.518 1.594-1.356-0.985-1.356 0.985 0.518-1.594-1.356-0.985h1.676l0.518-1.594 0.518 1.594h1.676l-1.356 0.985zM13.771 14.4l-1.356-0.985-1.356 0.985 0.518-1.594-1.356-0.985h1.676l0.518-1.594 0.518 1.594h1.676l-1.356 0.985 0.518 1.594zM13.252 8.145l0.518 1.594-1.356-0.985-1.356 0.985 0.518-1.594-1.356-0.985h1.676l0.518-1.594 0.518 1.594h1.676l-1.356 0.985zM13.252 3.484l0.518 1.594-1.356-0.985-1.356 0.985 0.518-1.594-1.356-0.985h1.676l0.518-1.594 0.518 1.594h1.676l-1.356 0.985z"></path>
</symbol>
<symbol id="icon-V_G" viewBox="0 0 32 32">
<path fill="#ffe2b2" style="fill: var(--color18, #ffe2b2)" d="M26.88 0h-21.76c-2.828 0-5.12 2.292-5.12 5.12v21.76c0 2.828 2.292 5.12 5.12 5.12h21.76c2.828 0 5.12-2.292 5.12-5.12v-21.76c0-2.828-2.292-5.12-5.12-5.12z"></path>
<path fill="#0e0e0f" style="fill: var(--color2, #0e0e0f)" d="M12.67 11.531c0.54-0.055 1.083 0.064 1.551 0.338s0.837 0.69 1.054 1.187h1.45c0.233-0.536 0.642-0.975 1.16-1.246s1.112-0.357 1.685-0.243c0.573 0.114 1.090 0.42 1.465 0.867s0.586 1.010 0.597 1.594l0.739 4.76c0.055 0.266 0.032 0.542-0.067 0.795s-0.268 0.472-0.488 0.631c-0.22 0.159-0.481 0.251-0.752 0.265s-0.54-0.051-0.775-0.186l-0.013-0.007-3.311-2.108h-1.932l-3.324 2.115c-0.235 0.135-0.504 0.2-0.775 0.186s-0.532-0.106-0.752-0.265-0.389-0.378-0.488-0.63c-0.098-0.253-0.122-0.529-0.067-0.794l0.739-4.76c0.012-0.625 0.254-1.225 0.678-1.685s1.002-0.749 1.624-0.811l0.001-0.001zM13.687 13.048c-0.191-0.141-0.417-0.226-0.653-0.245s-0.473 0.026-0.685 0.133-0.389 0.271-0.513 0.472c-0.124 0.202-0.19 0.434-0.189 0.671v0.050l-0.76 4.893-0.004 0.021c-0.005 0.024-0.004 0.048 0.004 0.071s0.023 0.043 0.042 0.058c0.019 0.015 0.042 0.024 0.066 0.027s0.048-0.002 0.070-0.013l3.597-2.29h2.677l3.597 2.29c0.022 0.011 0.046 0.015 0.070 0.012s0.047-0.012 0.066-0.027c0.019-0.015 0.033-0.035 0.041-0.058s0.010-0.047 0.004-0.071l-0.004-0.021-0.76-4.893v-0.050c0-0.317-0.117-0.624-0.33-0.859s-0.505-0.384-0.821-0.416c-0.316-0.032-0.632 0.055-0.888 0.243s-0.432 0.465-0.495 0.776l-0.104 0.513h-3.428l-0.104-0.512c-0.063-0.311-0.24-0.588-0.495-0.776zM12.992 16.001v-0.448h-0.448v-0.64h0.448v-0.448h0.64v0.448h0.448v0.64h-0.448v0.448h-0.64zM18.726 15.814c0.17 0 0.333-0.067 0.453-0.187s0.187-0.283 0.187-0.453c0-0.17-0.067-0.332-0.187-0.453s-0.283-0.187-0.453-0.187-0.333 0.067-0.453 0.187c-0.12 0.12-0.187 0.283-0.187 0.453s0.067 0.333 0.187 0.453c0.12 0.12 0.283 0.187 0.453 0.187z"></path>
</symbol>
<symbol id="icon-view" viewBox="0 0 32 32">
<path d="M6.861 12.738c0-4.123 3.415-7.466 7.628-7.466s7.628 3.342 7.628 7.466c0 4.123-3.415 7.466-7.628 7.466s-7.628-3.342-7.628-7.466zM14.489 2.286c-5.898 0-10.68 4.679-10.68 10.452s4.781 10.452 10.68 10.452c1.866 0 3.62-0.468 5.147-1.291l6.135 7.816 2.42-1.819-6.119-7.797c1.915-1.889 3.098-4.49 3.098-7.361 0-5.772-4.781-10.452-10.68-10.452z"></path>
</symbol>
</defs>
</svg>
